<svg width="64" height="64" viewBox="0 0 64 64" fill="none" xmlns="http://www.w3.org/2000/svg">
<path d="M18.098 26.7345C18.098 27.5187 18.183 28.1545 18.3312 28.6207C18.5195 29.1453 18.7461 29.6553 19.0092 30.1465C19.1152 30.316 19.1575 30.4855 19.1575 30.634C19.1575 30.8457 19.0305 31.0577 18.755 31.2697L17.42 32.1597C17.2292 32.287 17.0385 32.3505 16.8687 32.3505C16.657 32.3505 16.445 32.2445 16.233 32.0537C15.9475 31.7469 15.6921 31.4134 15.4702 31.0577C15.2582 30.6977 15.0462 30.2947 14.8132 29.8075C13.1602 31.757 11.0832 32.732 8.58275 32.732C6.80275 32.732 5.38275 32.2232 4.34425 31.2062C3.306 30.1887 2.77625 28.8325 2.77625 27.1372C2.77625 25.336 3.412 23.8737 4.70475 22.7717C5.99725 21.6697 7.714 21.1187 9.89675 21.1187C10.6172 21.1187 11.359 21.1822 12.143 21.2882C12.9272 21.3942 13.7325 21.5637 14.5802 21.7545V20.2075C14.5802 18.5967 14.241 17.4737 13.584 16.8167C12.906 16.1597 11.7615 15.8417 10.1297 15.8417C9.388 15.8417 8.62525 15.9267 7.841 16.1175C7.057 16.308 6.294 16.5412 5.55225 16.838C5.21325 16.9862 4.959 17.071 4.8105 17.1135C4.66225 17.156 4.55625 17.177 4.4715 17.177C4.17475 17.177 4.0265 16.965 4.0265 16.52V15.4815C4.0265 15.1425 4.069 14.8882 4.17475 14.74C4.28075 14.5915 4.4715 14.4432 4.76825 14.295C5.51 13.9135 6.4 13.5955 7.43825 13.3412C8.477 13.0657 9.579 12.9387 10.7445 12.9387C13.2665 12.9387 15.1102 13.5107 16.297 14.6552C17.4625 15.7995 18.056 17.5372 18.056 19.8685V26.7345H18.098ZM9.494 29.9557C10.1935 29.9557 10.914 29.8287 11.6767 29.5742C12.4397 29.32 13.118 28.8537 13.69 28.218C14.0292 27.8155 14.2835 27.3705 14.4105 26.8617C14.5377 26.3532 14.6225 25.7385 14.6225 25.018V24.128C13.9798 23.9716 13.3289 23.8513 12.6727 23.7677C12.012 23.6838 11.3467 23.6413 10.6807 23.6405C9.26075 23.6405 8.2225 23.916 7.52325 24.4882C6.82375 25.0605 6.48475 25.8657 6.48475 26.9252C6.48475 27.9212 6.739 28.663 7.26875 29.1717C7.7775 29.7015 8.51925 29.9557 9.494 29.9557ZM26.5112 32.2445C26.1297 32.2445 25.8755 32.181 25.706 32.0325C25.5365 31.9055 25.388 31.6087 25.261 31.2062L20.281 14.8247C20.1535 14.4007 20.09 14.1252 20.09 13.977C20.09 13.638 20.2595 13.447 20.5987 13.447H22.6755C23.078 13.447 23.3537 13.5107 23.502 13.659C23.6715 13.7862 23.7987 14.083 23.9257 14.4855L27.486 28.5147L30.792 14.4855C30.898 14.0617 31.0252 13.7862 31.1945 13.659C31.3642 13.532 31.661 13.4472 32.0425 13.4472H33.7377C34.1402 13.4472 34.416 13.5107 34.5852 13.659C34.755 13.7862 34.9032 14.083 34.988 14.4855L38.3365 28.6842L42.0025 14.4855C42.1295 14.0617 42.278 13.7862 42.4262 13.659C42.5957 13.532 42.8712 13.4472 43.2527 13.4472H45.2235C45.5627 13.4472 45.7535 13.6167 45.7535 13.977C45.7535 14.083 45.7322 14.189 45.711 14.316C45.6897 14.4432 45.6475 14.6127 45.5627 14.846L40.4552 31.2272C40.3282 31.6512 40.18 31.9267 40.0102 32.0537C39.8407 32.181 39.5652 32.2657 39.2052 32.2657H37.3827C36.98 32.2657 36.7045 32.2022 36.5347 32.0537C36.3652 31.9055 36.217 31.63 36.1322 31.2062L32.8472 17.5372L29.5837 31.1847C29.478 31.6087 29.3507 31.8842 29.1812 32.0325C29.0117 32.181 28.715 32.2445 28.3337 32.2445H26.5112ZM53.743 32.8167C52.641 32.8167 51.539 32.6895 50.4795 32.4352C49.4197 32.181 48.5935 31.9052 48.0425 31.5877C47.7032 31.3967 47.47 31.185 47.3855 30.9942C47.303 30.8072 47.2597 30.6052 47.2582 30.4007V29.32C47.2582 28.875 47.4277 28.663 47.7457 28.663C47.8755 28.6635 48.0044 28.685 48.1272 28.7267C48.2542 28.7692 48.445 28.8537 48.657 28.9385C49.4055 29.2677 50.1869 29.5164 50.988 29.6802C51.8181 29.8487 52.663 29.9339 53.51 29.9345C54.845 29.9345 55.8835 29.7015 56.604 29.2352C57.3245 28.769 57.706 28.091 57.706 27.222C57.706 26.6287 57.5152 26.1412 57.1337 25.7385C56.7522 25.336 56.0317 24.9757 54.9935 24.6365L51.9205 23.683C50.3735 23.1955 49.2292 22.475 48.5297 21.5212C47.8305 20.5887 47.4702 19.5505 47.4702 18.4485C47.4702 17.5585 47.661 16.7742 48.0425 16.096C48.4237 15.418 48.9325 14.8247 49.5682 14.3585C50.204 13.871 50.9245 13.5107 51.7722 13.2565C52.6197 13.0022 53.5097 12.8962 54.4422 12.8962C54.9085 12.8962 55.396 12.9175 55.8622 12.981C56.3497 13.0445 56.7947 13.1292 57.2397 13.214C57.6635 13.32 58.0662 13.426 58.4477 13.5532C58.8292 13.6802 59.1257 13.8075 59.3377 13.9345C59.6345 14.1042 59.8462 14.2737 59.9735 14.4645C60.1007 14.634 60.1642 14.867 60.1642 15.1637V16.1597C60.1642 16.6047 59.9947 16.838 59.6767 16.838C59.5072 16.838 59.2317 16.753 58.8717 16.5835C57.6635 16.0325 56.3072 15.757 54.8027 15.757C53.5947 15.757 52.641 15.9477 51.984 16.3505C51.3272 16.753 50.988 17.3677 50.988 18.2365C50.988 18.83 51.2 19.3385 51.6237 19.7412C52.0477 20.1437 52.8317 20.5465 53.955 20.9067L56.9642 21.8605C58.49 22.348 59.592 23.026 60.249 23.8947C60.906 24.7637 61.224 25.7597 61.224 26.8617C61.224 27.773 61.033 28.5995 60.6727 29.32C60.2915 30.0405 59.7827 30.6762 59.1257 31.185C58.4687 31.7147 57.6847 32.0962 56.7735 32.3717C55.8197 32.6685 54.8237 32.8167 53.743 32.8167Z" fill="#252F3E"/>
<path d="M57.7482 43.1161C50.7762 48.2658 40.6462 50.9996 31.9364 50.9996C19.7297 50.9996 8.73119 46.4856 0.423944 38.9836C-0.233056 38.3903 0.360195 37.5851 1.14419 38.0511C10.1297 43.2646 21.2132 46.4221 32.6782 46.4221C40.4132 46.4221 48.9112 44.8116 56.7312 41.5056C57.8967 40.9756 58.8927 42.2686 57.7482 43.1161ZM60.6517 39.8101C59.7617 38.6658 54.7602 39.2591 52.4927 39.5346C51.8144 39.6196 51.7084 39.0261 52.3232 38.5811C56.3072 35.7836 62.8557 36.5891 63.6184 37.5213C64.3814 38.4751 63.4064 45.0233 59.6767 48.1598C59.1047 48.6473 58.5537 48.3931 58.8079 47.7573C59.6554 45.6591 61.5417 40.9333 60.6517 39.8101Z" fill="#FF9900"/>
</svg>
