<svg width="64" height="64" viewBox="0 0 64 64" fill="none" xmlns="http://www.w3.org/2000/svg">
<path d="M31.6296 1.18518C40.3704 1.18518 47.8272 4.2716 54 10.4444C60.1728 16.6173 63.2593 24.0494 63.2593 32.7407C63.2593 39.6543 61.2346 45.8518 57.1852 51.3333C53.1358 56.8148 47.9506 60.642 41.6296 62.8148C40.2469 63.0123 39.5556 62.4691 39.5556 61.1852V52.5926C39.5556 49.9259 38.8148 47.9506 37.3333 46.6667C41.679 46.1728 45.1605 44.8395 47.7778 42.6667C50.3951 40.4938 51.7037 36.6914 51.7037 31.2593C51.7037 27.9012 50.6173 25.037 48.4444 22.6667C49.5309 20.0988 49.4321 17.2839 48.1481 14.2222C46.3704 13.7284 43.5062 14.8148 39.5556 17.4815C36.9877 16.7901 34.321 16.4444 31.5556 16.4444C28.7901 16.4444 26.1728 16.7901 23.7037 17.4815C21.9259 16.2963 20.321 15.4321 18.8889 14.8889C17.4568 14.3457 16.4444 14.1235 15.8519 14.2222H14.963C13.7778 17.2839 13.679 20.0988 14.6667 22.6667C12.4938 25.037 11.4074 27.9012 11.4074 31.2593C11.4074 36.6914 12.7407 40.4938 15.4074 42.6667C18.0741 44.8395 21.5309 46.1728 25.7778 46.6667C24.6914 47.6543 24.0494 49.0864 23.8519 50.963C19.7037 52.7407 16.642 51.8518 14.6667 48.2963C13.4815 46.321 11.8519 45.2346 9.77778 45.037C9.58025 45.037 9.35802 45.0617 9.11111 45.1111C8.8642 45.1605 8.61728 45.3333 8.37037 45.6296C8.12346 45.9259 8.54321 46.3704 9.62963 46.963C11.0123 47.6543 12.1481 49.1852 13.037 51.5556C13.1358 51.7531 13.2346 51.9753 13.3333 52.2222C13.4321 52.4691 13.7531 52.9383 14.2963 53.6296C14.8395 54.321 15.4815 54.8395 16.2222 55.1852C16.963 55.5309 17.9753 55.8518 19.2593 56.1481C20.5432 56.4444 22.0247 56.3457 23.7037 55.8518V61.1852C23.7037 62.4691 23.0123 63.0123 21.6296 62.8148C15.3086 60.642 10.1235 56.8148 6.07407 51.3333C2.02469 45.8518 0 39.6543 0 32.7407C0 24.0494 3.08642 16.6173 9.25926 10.4444C15.4321 4.2716 22.8889 1.18518 31.6296 1.18518Z" fill="white"/>
</svg>
