<svg width="64" height="64" viewBox="0 0 64 64" fill="none" xmlns="http://www.w3.org/2000/svg">
<g clip-path="url(#clip0_133_415)">
<path d="M49 0H15C6.71573 0 0 6.71573 0 15V49C0 57.2843 6.71573 64 15 64H49C57.2843 64 64 57.2843 64 49V15C64 6.71573 57.2843 0 49 0Z" fill="#330000"/>
<path d="M30.9333 38.0832H21.0133L18.9865 44.35C18.9333 44.59 18.72 44.75 18.48 44.7232H13.4665C13.1733 44.7232 13.0933 44.5632 13.1733 44.2432L21.76 19.5232C21.84 19.2567 21.92 18.9632 22.0265 18.6432C22.1333 18.0832 22.1865 17.4967 22.1865 16.91C22.16 16.7767 22.2665 16.6432 22.4 16.6167H29.3065C29.52 16.6167 29.6265 16.6967 29.6533 16.83L39.3865 44.2967C39.4665 44.59 39.3865 44.7232 39.12 44.7232H33.5465C33.36 44.75 33.1733 44.6167 33.12 44.43L30.9333 38.0832ZM22.56 32.67H29.3333C29.1733 32.11 28.96 31.4432 28.72 30.75C28.48 30.03 28.24 29.2567 28 28.4567C27.7333 27.63 27.4933 26.83 27.2265 26.0032C26.96 25.1767 26.72 24.4032 26.5065 23.63C26.2933 22.8835 26.1065 22.19 25.92 21.55H25.8665C25.6265 22.6967 25.3333 23.8435 24.96 24.99C24.56 26.27 24.16 27.6032 23.7333 28.9367C23.3889 30.1953 22.9975 31.4406 22.56 32.67ZM45.3333 21.2832C44.4533 21.31 43.6 20.9632 42.96 20.35C42.3468 19.6832 42.0268 18.8032 42.0533 17.8967C42.0268 16.99 42.3733 16.1367 43.0133 15.5232C43.6533 14.91 44.5068 14.59 45.3868 14.59C46.4268 14.59 47.2268 14.91 47.8133 15.5232C48.4042 16.1697 48.7199 17.0212 48.6933 17.8967C48.72 18.8032 48.4 19.6832 47.76 20.35C47.1468 20.99 46.24 21.3367 45.3333 21.2832ZM42.3468 44.43V23.8967C42.3468 23.63 42.4533 23.5232 42.6933 23.5232H47.9733C48.2133 23.5232 48.32 23.6567 48.32 23.8967V44.43C48.32 44.7232 48.2133 44.8567 47.9733 44.8567H42.7468C42.48 44.8567 42.3468 44.6967 42.3468 44.43Z" fill="#FF9A00"/>
</g>
<defs>
<clipPath id="clip0_133_415">
<rect width="64" height="64" fill="white"/>
</clipPath>
</defs>
</svg>
