<svg width="64" height="64" viewBox="0 0 64 64" fill="none" xmlns="http://www.w3.org/2000/svg">
<g clip-path="url(#clip0_133_419)">
<path d="M53.375 0.75H10.625C4.75697 0.75 0 5.50697 0 11.375V52.525C0 58.393 4.75697 63.15 10.625 63.15H53.375C59.243 63.15 64 58.393 64 52.525V11.375C64 5.50697 59.243 0.75 53.375 0.75Z" fill="#49021F"/>
<path d="M23.2421 17.0742V44.4227C23.2421 44.7092 23.1134 44.8522 22.8556 44.8522H17.6606C17.4314 44.8522 17.3169 44.709 17.3174 44.4227V17.0742C17.3174 16.8455 17.4461 16.731 17.7036 16.7307H22.8986C22.9423 16.7245 22.9868 16.7279 23.0291 16.7407C23.0713 16.7534 23.1102 16.7753 23.1432 16.8046C23.1762 16.8339 23.2023 16.8701 23.2199 16.9106C23.2374 16.951 23.246 16.9949 23.2449 17.039L23.2421 17.0742ZM38.8886 45.2787L38.6121 45.2815C36.6361 45.3115 34.6781 44.9009 32.8806 44.0795C31.2061 43.3044 29.8063 42.0393 28.8664 40.4515C27.9166 38.8742 27.4304 36.9082 27.4074 34.554L27.4066 34.3765C27.3906 32.406 27.8941 30.4661 28.8666 28.7522C29.8414 27.0533 31.2632 25.654 32.9774 24.7065L33.1169 24.6305C34.9769 23.6002 37.2239 23.085 39.8574 23.085L39.9129 23.0852L40.0361 23.088L40.1756 23.0935L40.3314 23.1015L40.5031 23.1122L40.6909 23.126L41.1151 23.1607L41.2311 23.1707V14.7132C41.2311 14.5132 41.3171 14.4125 41.4886 14.4125H46.8984C46.9334 14.4074 46.969 14.4106 47.0026 14.4218C47.0361 14.433 47.0666 14.4518 47.0916 14.4768C47.1165 14.5018 47.1354 14.5322 47.1465 14.5658C47.1577 14.5993 47.1609 14.635 47.1559 14.67V40.0437C47.1577 40.5738 47.1792 41.1037 47.2204 41.6322L47.2609 42.1857L47.2966 42.701L47.3276 43.1777C47.3329 43.2669 47.3112 43.3556 47.2653 43.4323C47.2193 43.5089 47.1513 43.5699 47.0701 43.6072C45.6745 44.1892 44.2209 44.6209 42.7339 44.895C41.4651 45.1292 40.179 45.2576 38.8889 45.2787H38.8886ZM41.2311 39.9577V28.237C40.9991 28.1741 40.7622 28.1311 40.5229 28.1082C40.2304 28.0788 39.9366 28.0644 39.6426 28.0652C38.6006 28.055 37.5711 28.2902 36.6374 28.7522C35.7278 29.2044 34.9511 29.8849 34.3834 30.7272C33.7964 31.5857 33.5029 32.7165 33.5031 34.119C33.4822 35.0548 33.6351 35.9864 33.9539 36.8665C34.2133 37.5757 34.6235 38.2203 35.1561 38.7557C35.666 39.2483 36.2833 39.6157 36.9594 39.829C37.6735 40.0602 38.4198 40.1762 39.1704 40.1727C39.5709 40.1727 39.9429 40.1582 40.2866 40.1295C40.5608 40.1088 40.8326 40.0637 41.0986 39.9945L41.2311 39.9577Z" fill="#FF3366"/>
</g>
<defs>
<clipPath id="clip0_133_419">
<rect width="64" height="64" fill="white"/>
</clipPath>
</defs>
</svg>
