<svg width="64" height="64" viewBox="0 0 64 64" fill="none" xmlns="http://www.w3.org/2000/svg">
<g clip-path="url(#clip0_133_360)">
<path d="M0 0H64V64H0V0Z" fill="#F7DF1E"/>
<path d="M16.828 53.483L21.7255 50.519C22.6705 52.1942 23.53 53.6117 25.5918 53.6117C27.568 53.6117 28.8143 52.8387 28.8143 49.8317V29.3822H34.8285V49.9167C34.8285 56.146 31.177 58.9815 25.8495 58.9815C21.0383 58.9815 18.2455 56.4897 16.8278 53.4825M38.0953 52.8385L42.9923 50.0032C44.2815 52.1085 45.957 53.655 48.921 53.655C51.4133 53.655 53.0023 52.409 53.0023 50.6905C53.0023 48.6285 51.3698 47.898 48.6203 46.6955L47.117 46.0505C42.7778 44.2037 39.8995 41.8837 39.8995 36.9862C39.8995 32.4752 43.3363 29.0382 48.7065 29.0382C52.53 29.0382 55.2795 30.3702 57.2555 33.85L52.5725 36.8575C51.5413 35.0102 50.4248 34.28 48.7063 34.28C46.9448 34.28 45.8278 35.397 45.8278 36.8575C45.8278 38.6617 46.9448 39.3925 49.5223 40.5095L51.0258 41.1537C56.1383 43.345 59.0165 45.5787 59.0165 50.6047C59.0165 56.0182 54.7635 58.9822 49.0498 58.9822C43.465 58.9822 39.8563 56.3187 38.095 52.8387" fill="black"/>
</g>
<defs>
<clipPath id="clip0_133_360">
<rect width="64" height="64" fill="white"/>
</clipPath>
</defs>
</svg>
