<svg width="64" height="64" viewBox="0 0 64 64" fill="none" xmlns="http://www.w3.org/2000/svg">
<g clip-path="url(#clip0_133_411)">
<path d="M49 0H15C6.71573 0 0 6.71573 0 15V49C0 57.2843 6.71573 64 15 64H49C57.2843 64 64 57.2843 64 49V15C64 6.71573 57.2843 0 49 0Z" fill="#001E36"/>
<path d="M14.3999 44.5099V17.0699C14.3999 16.8832 14.4799 16.7767 14.6667 16.7767C15.1199 16.7767 15.5467 16.7767 16.1599 16.7499C16.7999 16.7232 17.4667 16.7232 18.1867 16.6967C18.9067 16.6699 19.6799 16.6699 20.5067 16.6432C21.3332 16.6167 22.1332 16.6167 22.9332 16.6167C25.1199 16.6167 26.9332 16.8832 28.4267 17.4432C29.7653 17.8978 30.9859 18.6448 31.9999 19.6299C32.8592 20.4921 33.5231 21.5288 33.9467 22.6699C34.3467 23.7899 34.5599 24.9367 34.5599 26.1367C34.5599 28.4299 34.0267 30.3232 32.9599 31.8167C31.8932 33.3099 30.3999 34.4299 28.6667 35.0699C26.8532 35.7367 24.8532 35.9767 22.6667 35.9767C22.0267 35.9767 21.5999 35.9767 21.3332 35.9499C21.0667 35.9232 20.6932 35.9232 20.1867 35.9232V44.4832C20.2132 44.6699 20.0799 44.8299 19.8932 44.8567H14.7199C14.5067 44.8567 14.3999 44.7499 14.3999 44.5099ZM20.2132 21.9232V30.8832C20.5867 30.9099 20.9332 30.9367 21.2532 30.9367H22.6667C23.7067 30.9367 24.7467 30.7767 25.7332 30.4567C26.5867 30.2167 27.3332 29.7099 27.9199 29.0432C28.4799 28.3767 28.7467 27.4699 28.7467 26.2967C28.7717 25.4633 28.5589 24.6401 28.1332 23.9232C27.6799 23.2299 27.0399 22.6967 26.2667 22.4032C25.2799 22.0032 24.2132 21.8432 23.1199 21.8699C22.4267 21.8699 21.8132 21.8699 21.3067 21.8967C20.7732 21.8699 20.3999 21.8967 20.2132 21.9232ZM51.1999 29.2567C50.3999 28.8299 49.5467 28.5367 48.6399 28.3499C47.6532 28.1367 46.6667 28.0032 45.6532 28.0032C45.1199 27.9767 44.5599 28.0567 44.0532 28.1899C43.7067 28.2699 43.4132 28.4567 43.2267 28.7232C43.0932 28.9367 43.0132 29.2032 43.0132 29.4432C43.0132 29.6832 43.1199 29.9232 43.2799 30.1367C43.5199 30.4299 43.8399 30.6699 44.1867 30.8567C44.8049 31.1769 45.4366 31.4705 46.0799 31.7367C47.5199 32.2167 48.9067 32.8832 50.1867 33.6832C51.0667 34.2432 51.7867 34.9899 52.2932 35.8967C52.7199 36.7499 52.9332 37.6832 52.9067 38.6432C52.9332 39.8967 52.5599 41.1499 51.8667 42.1899C51.1228 43.2544 50.0849 44.0791 48.8799 44.5632C47.5732 45.1232 45.9732 45.4167 44.0532 45.4167C42.8267 45.4167 41.6267 45.3099 40.4267 45.0699C39.4861 44.9075 38.5714 44.6206 37.7067 44.2167C37.5199 44.1099 37.3867 43.9232 37.4132 43.7099V39.0699C37.4132 38.9899 37.4399 38.8832 37.5199 38.8299C37.5999 38.7767 37.6799 38.8032 37.7599 38.8567C38.7999 39.4699 39.8932 39.8967 41.0667 40.1632C42.0799 40.4299 43.1467 40.5632 44.2132 40.5632C45.2267 40.5632 45.9467 40.4299 46.4267 40.1899C46.8532 40.0032 47.1467 39.5499 47.1467 39.0699C47.1467 38.6967 46.9332 38.3499 46.5067 38.0032C46.0799 37.6567 45.1999 37.2567 43.8932 36.7499C42.5527 36.2776 41.2798 35.6322 40.1067 34.8299C39.271 34.2343 38.5787 33.46 38.0799 32.5632C37.6532 31.7099 37.4399 30.7767 37.4667 29.8432C37.4667 28.6967 37.7867 27.6032 38.3732 26.6167C39.0399 25.5499 40.0267 24.6967 41.1732 24.1632C42.4267 23.5232 43.9999 23.2299 45.8932 23.2299C46.9867 23.2299 48.1067 23.3099 49.1999 23.4699C49.9999 23.5767 50.7732 23.7899 51.4932 24.0832C51.5999 24.1099 51.7067 24.2167 51.7599 24.3232C51.7867 24.4299 51.8132 24.5367 51.8132 24.6432V28.9899C51.8132 29.0967 51.7599 29.2032 51.6799 29.2567C51.4399 29.3099 51.3067 29.3099 51.1999 29.2567Z" fill="#31A8FF"/>
</g>
<defs>
<clipPath id="clip0_133_411">
<rect width="64" height="64" fill="white"/>
</clipPath>
</defs>
</svg>
