<svg width="64" height="64" viewBox="0 0 64 64" fill="none" xmlns="http://www.w3.org/2000/svg">
<path d="M62.7898 38.3239C62.4177 37.1969 61.4429 36.4119 60.1823 36.2235C59.5879 36.1348 58.9071 36.1726 58.1016 36.3387C56.6974 36.6284 55.6557 36.7387 54.8955 36.76C57.7651 31.9152 60.0984 26.3903 61.4417 21.1896C63.6138 12.7801 62.4531 8.94911 61.0967 7.21626C57.5071 2.6296 52.27 0.165598 45.952 0.0902043C42.5816 0.0489922 39.6228 0.714447 38.0793 1.19299C36.6422 0.939416 35.097 0.797841 33.4756 0.771659C30.4364 0.723174 27.751 1.38572 25.4565 2.74742C24.1862 2.31784 22.1474 1.71226 19.793 1.32584C14.2555 0.41675 9.79247 1.12511 6.52799 3.4313C2.57502 6.22354 0.742536 11.0749 1.08144 17.8507C1.18908 20.002 2.39248 26.5474 4.28726 32.7549C5.37623 36.3229 6.53744 39.2858 7.73866 41.5622C9.44217 44.7901 11.265 46.6909 13.3113 47.3736C14.4582 47.7557 16.5421 48.0233 18.7338 46.1978C19.0116 46.5343 19.3823 46.8686 19.8742 47.1792C20.4989 47.5731 21.2628 47.8951 22.0257 48.0858C24.775 48.7731 27.3503 48.6012 29.5474 47.6378C29.561 48.0286 29.5714 48.402 29.5801 48.7244C29.5947 49.2473 29.6092 49.76 29.6284 50.2395C29.7585 53.4817 29.9791 56.0027 30.6327 57.7666C30.6686 57.8635 30.7168 58.0114 30.7677 58.1683C31.0938 59.1666 31.639 60.8378 33.0262 62.1467C34.4625 63.5026 36.2 63.9183 37.7913 63.9183C38.5893 63.9183 39.3508 63.8136 40.0187 63.6706C42.3993 63.1603 45.103 62.383 47.0589 59.5981C48.9081 56.9654 49.807 53 49.9697 46.752C49.9908 46.5753 50.0102 46.4066 50.0288 46.2458L50.0676 45.9157L50.5033 45.954L50.6155 45.9615C53.0402 46.072 56.0051 45.5578 57.8259 44.712C59.2647 44.0444 63.8754 41.6102 62.7898 38.3239Z" fill="black"/>
<path d="M58.6439 38.9629C51.4342 40.4502 50.9384 38.0092 50.9384 38.0092C58.5506 26.714 61.7329 12.3763 58.9869 8.86719C51.4951 -0.704934 38.5266 3.8221 38.3101 3.93943L38.2405 3.95204C36.816 3.65628 35.2221 3.48028 33.4303 3.45095C30.1683 3.39761 27.6936 4.30622 25.8158 5.73022C25.8158 5.73022 2.68124 -3.80045 3.75736 17.7166C3.98621 22.2941 10.3183 52.3525 17.8708 43.2735C20.6313 39.9535 23.2987 37.1465 23.2987 37.1465C24.6233 38.0265 26.2092 38.4754 27.8718 38.3142L28.001 38.2046C27.9608 38.6168 27.9792 39.0199 28.0526 39.4972C26.1069 41.6711 26.6788 42.0526 22.7894 42.8534C18.8536 43.6645 21.1656 45.1084 22.6752 45.4861C24.5052 45.9436 28.7389 46.5918 31.5995 42.5872L31.4856 43.0442C32.2478 43.6548 32.7831 47.0158 32.6934 50.0628C32.6037 53.1096 32.5438 55.2015 33.1443 56.8354C33.7452 58.4694 34.3438 62.1457 39.457 61.0502C43.7292 60.1346 45.9433 57.762 46.2514 53.8042C46.4698 50.9906 46.9646 51.4066 46.9957 48.8909L47.3925 47.7002C47.85 43.8861 47.4652 42.6556 50.0972 43.2279L50.7372 43.2842C52.6742 43.3722 55.21 42.9724 56.6982 42.2808C59.9026 40.7937 61.8032 38.3106 58.6434 38.9629H58.6439Z" fill="#336791"/>
<path d="M27.1699 19.7636C26.5202 19.6732 25.9319 19.7568 25.6342 19.9823C25.4669 20.1091 25.415 20.256 25.401 20.3571C25.3636 20.625 25.5513 20.9212 25.6666 21.0739C25.993 21.5064 26.4696 21.8036 26.9413 21.8691C27.0097 21.8788 27.0778 21.8831 27.1454 21.8831C27.9321 21.8831 28.6475 21.2705 28.7105 20.8184C28.7893 20.2521 27.9673 19.8744 27.1699 19.7636ZM48.6933 19.7816C48.6313 19.3377 47.8414 19.2111 47.0919 19.3154C46.3433 19.4196 45.6174 19.7576 45.678 20.2024C45.7265 20.5483 46.3513 21.1389 47.0906 21.1389C47.1532 21.1389 47.2162 21.1348 47.2797 21.1258C47.7733 21.0574 48.1355 20.744 48.3076 20.5634C48.5694 20.288 48.7212 19.9811 48.6933 19.7816Z" fill="white"/>
<path d="M61.0429 38.794C60.768 37.9627 59.8832 37.6953 58.4131 37.9988C54.0483 38.8997 52.4851 38.2757 51.9719 37.8977C55.3646 32.7293 58.1557 26.4815 59.6614 20.6524C60.3746 17.8912 60.7685 15.3268 60.8007 13.2366C60.8364 10.9426 60.4456 9.25677 59.6398 8.22695C56.3908 4.07544 51.6223 1.84853 45.8502 1.78744C41.882 1.74283 38.5292 2.75834 37.8793 3.04392C36.5106 2.70356 35.0184 2.49459 33.394 2.46792C30.4151 2.41968 27.84 3.13289 25.7081 4.58671C24.7821 4.24198 22.3889 3.42041 19.4621 2.94889C14.4022 2.13434 10.3814 2.75156 7.51202 4.78428C4.08826 7.20998 2.50766 11.546 2.81384 17.6716C2.91687 19.7324 4.09117 26.0723 5.94426 32.1438C8.38354 40.1351 11.0352 44.659 13.825 45.5896C14.1515 45.6985 14.528 45.7746 14.9433 45.7746C15.961 45.7746 17.2087 45.3159 18.5069 43.7552C20.0903 41.8557 21.7283 40.0023 23.4187 38.1974C24.5154 38.786 25.7203 39.1147 26.9525 39.1477C26.9549 39.1799 26.9581 39.2122 26.961 39.2442C26.7489 39.4971 26.5412 39.7537 26.338 40.0139C25.4841 41.0977 25.3064 41.3234 22.5581 41.8893C21.7763 42.0507 19.6999 42.4786 19.6694 43.9341C19.6364 45.5244 22.1239 46.1923 22.4073 46.2631C23.3949 46.5103 24.3464 46.6323 25.2538 46.6323C27.4606 46.6323 29.4027 45.907 30.9547 44.5036C30.9069 50.1729 31.1433 55.7593 31.824 57.4614C32.3816 58.8548 33.7435 62.2602 38.0456 62.2599C38.6769 62.2599 39.3717 62.1865 40.136 62.0226C44.626 61.0602 46.5758 59.0757 47.33 54.7006C47.7336 52.3625 48.4262 46.7792 48.752 43.7843C49.4395 43.9988 50.3246 44.097 51.2815 44.0968C53.2771 44.0968 55.5799 43.6728 57.024 43.0025C58.6463 42.249 61.5738 40.4003 61.0429 38.794ZM50.3506 18.5564C50.3358 19.4405 50.2141 20.2432 50.0851 21.081C49.9462 21.9821 49.8027 22.9137 49.7666 24.0446C49.7309 25.1453 49.8684 26.2895 50.0012 27.3962C50.2698 29.6313 50.5455 31.9324 49.4786 34.203C49.3013 33.8889 49.1435 33.5644 49.0058 33.2311C48.8732 32.9096 48.5852 32.3933 48.1864 31.6786C46.6352 28.8965 43.0024 22.3816 44.8621 19.7232C45.416 18.9319 46.8218 18.1183 50.3506 18.5564ZM46.0732 3.57774C51.2451 3.69192 55.3363 5.62671 58.2328 9.32804C60.4543 12.1671 58.008 25.0851 50.9261 36.2296C50.8549 36.1391 50.7833 36.0488 50.7113 35.9588L50.6216 35.8468C52.4517 32.8245 52.0938 29.8342 51.7753 27.1831C51.6444 26.0951 51.5207 25.0674 51.5523 24.1021C51.5847 23.0791 51.72 22.2015 51.8509 21.353C52.0117 20.3074 52.1753 19.2255 52.1302 17.9501C52.1639 17.8163 52.1775 17.6582 52.1598 17.4706C52.0446 16.2476 50.6483 12.5872 47.8022 9.27422C46.2454 7.4621 43.9751 5.43422 40.8752 4.06647C42.2085 3.7901 44.0318 3.53241 46.0732 3.57774ZM17.1331 42.6129C15.7028 44.3326 14.7152 44.0029 14.3903 43.8948C12.274 43.1889 9.8182 38.7157 7.65311 31.6223C5.77966 25.4846 4.68487 19.3128 4.59808 17.5821C4.32463 12.1086 5.65141 8.2941 8.54184 6.24416C13.2458 2.90841 20.9797 4.90501 24.0873 5.91762C24.0427 5.96174 23.9961 6.00295 23.952 6.0478C18.8524 11.1979 18.9734 19.9969 18.986 20.5348C18.9855 20.7423 19.0029 21.0362 19.0267 21.4403C19.1144 22.9203 19.2778 25.6747 18.8415 28.794C18.4361 31.6926 19.3297 34.5297 21.2926 36.578C21.4941 36.7878 21.7058 36.9875 21.9271 37.1763C21.0534 38.112 19.1544 40.1814 17.1331 42.6129ZM22.5826 35.3419C21.0005 33.691 20.282 31.3947 20.6109 29.0413C21.0715 25.7462 20.9016 22.8764 20.8102 21.3346C20.7974 21.1188 20.786 20.9297 20.7794 20.7806C21.5244 20.12 24.9767 18.2703 27.4388 18.8345C28.5622 19.0917 29.2468 19.8568 29.5314 21.1726C31.0044 27.9855 29.7263 30.825 28.6994 33.1069C28.4878 33.577 28.2878 34.0214 28.1171 34.481L27.9847 34.8364C27.6497 35.7348 27.338 36.5702 27.1447 37.3634C25.4628 37.3586 23.8267 36.64 22.5826 35.3416V35.3419ZM22.8407 44.5297C22.3496 44.4071 21.9079 44.194 21.6487 44.0173C21.8652 43.9154 22.2504 43.7768 22.9186 43.6391C26.1518 42.9736 26.6512 42.5038 27.7416 41.1193C27.9915 40.8017 28.2749 40.442 28.6674 40.0037L28.6679 40.0032C29.2524 39.3486 29.5198 39.4597 30.0046 39.6609C30.3976 39.8233 30.7804 40.3159 30.9355 40.858C31.009 41.114 31.0914 41.5998 30.8216 41.978C28.5438 45.1673 25.2245 45.1263 22.8407 44.5297ZM39.7617 60.2757C35.8063 61.1232 34.4058 59.105 33.4829 56.7979C32.8873 55.3084 32.5944 48.5918 32.8022 41.1743C32.8049 41.0757 32.7908 40.9804 32.7637 40.8907C32.7394 40.7136 32.7024 40.5384 32.6531 40.3666C32.3443 39.2873 31.5915 38.3845 30.6885 38.0102C30.3297 37.8616 29.6713 37.5889 28.88 37.7913C29.0487 37.096 29.3414 36.3108 29.6587 35.4606L29.7918 35.1031C29.9416 34.6999 30.1297 34.2822 30.3285 33.84C31.4032 31.4526 32.8749 28.1826 31.2776 20.7952C30.6793 18.0282 28.6812 16.6769 25.6524 16.9908C23.8366 17.1787 22.1753 17.9113 21.3467 18.3314C21.1685 18.4216 21.0056 18.5089 20.8534 18.5937C21.0846 15.8059 21.9583 10.5957 25.2267 7.29919C27.2846 5.22404 30.0252 4.19907 33.3644 4.25434C39.9438 4.36198 44.1629 7.73847 46.544 10.5523C48.5959 12.9768 49.7069 15.4192 50.1503 16.7365C46.8158 16.3974 44.5479 17.0556 43.3983 18.6992C40.8972 22.2745 44.7666 29.2136 46.6262 32.5486C46.9673 33.1598 47.2616 33.688 47.3542 33.9125C47.9598 35.3802 48.7438 36.36 49.3161 37.0752C49.4917 37.2943 49.6618 37.5069 49.7913 37.6926C48.7814 37.9838 46.9673 38.6565 47.1326 42.0192C46.9993 43.7065 46.0512 51.6061 45.5695 54.3971C44.9336 58.0844 43.5767 59.4577 39.7617 60.2759V60.2757ZM56.2718 41.3821C55.2391 41.8614 53.5108 42.2209 51.8691 42.2982C50.0558 42.3831 49.1326 42.0951 48.9154 41.9179C48.8136 39.8223 49.5935 39.6034 50.4189 39.3717C50.5486 39.3353 50.6752 39.2997 50.7974 39.257C50.8732 39.3188 50.9564 39.3802 51.0475 39.4403C52.505 40.4022 55.1045 40.506 58.7746 39.7484L58.8148 39.7404C58.3198 40.2032 57.4727 40.8243 56.2718 41.3821Z" fill="white"/>
</svg>
