<svg width="63" height="64" viewBox="0 0 63 64" fill="none" xmlns="http://www.w3.org/2000/svg">
<path d="M51.7986 21.956C51.1281 21.7223 50.4519 21.5058 49.7707 21.3067C49.8852 20.8317 49.9905 20.3625 50.084 19.9015C51.6192 12.3312 50.6156 6.23246 47.1877 4.22446C43.9012 2.29946 38.5262 4.30671 33.0979 9.10596C32.5629 9.57979 32.0398 10.0673 31.529 10.568C31.1871 10.235 30.8392 9.90855 30.4854 9.58871C24.7962 4.45721 19.0937 2.29446 15.6695 4.30821C12.3859 6.23921 11.4136 11.9725 12.7956 19.147C12.9331 19.8575 13.0884 20.5644 13.2613 21.267C12.4541 21.5 11.6752 21.748 10.9298 22.012C4.25964 24.3745 0 28.0767 0 31.917C0 35.8832 4.57291 39.8615 11.5201 42.2737C12.0834 42.4685 12.6513 42.6489 13.2234 42.815C13.0376 43.5716 12.8726 44.3334 12.7287 45.0995C11.4111 52.1495 12.44 57.7472 15.7148 59.666C19.0971 61.6475 24.774 59.611 30.3015 54.7022C30.7497 54.3031 31.1881 53.8928 31.6162 53.4715C32.1693 54.0136 32.7371 54.54 33.3191 55.05C38.6736 59.7305 43.9617 61.6205 47.2333 59.6965C50.6124 57.7092 51.7107 51.6957 50.2848 44.3795C50.1725 43.8063 50.0465 43.2359 49.9071 42.669C50.3057 42.549 50.697 42.4255 51.0785 42.297C58.3008 39.8662 63 35.9362 63 31.917C63 28.0627 58.6028 24.3355 51.7986 21.956ZM50.2322 39.702C49.8876 39.8177 49.5342 39.9295 49.174 40.0382C48.3766 37.474 47.3007 34.7475 45.9838 31.9302C47.2404 29.1802 48.275 26.4885 49.0499 23.941C49.6944 24.1305 50.3198 24.3302 50.9227 24.541C56.7527 26.58 60.3087 29.5942 60.3087 31.917C60.3087 34.391 56.4682 37.6027 50.2322 39.702ZM47.6447 44.9105C48.2752 48.1455 48.3651 51.0705 47.9474 53.3572C47.5724 55.412 46.8179 56.7817 45.8847 57.3305C43.8994 58.498 39.6536 56.9805 35.0745 52.9775C34.5332 52.5033 34.005 52.0139 33.4904 51.51C35.2657 49.5377 37.0398 47.245 38.7713 44.6985C41.817 44.424 44.6943 43.975 47.3036 43.3622C47.4293 43.8755 47.5431 44.3917 47.6447 44.9105ZM21.4781 57.1287C19.5384 57.8245 17.9934 57.8445 17.0595 57.2975C15.0723 56.1332 14.2461 51.6385 15.373 45.6095C15.5069 44.897 15.6603 44.1885 15.8329 43.4847C18.4135 44.0647 21.2699 44.4817 24.3227 44.7332C26.066 47.225 27.8913 49.5152 29.7308 51.5207C29.3399 51.905 28.9397 52.2794 28.5306 52.6437C26.0862 54.8142 23.6368 56.3542 21.4781 57.1287ZM12.3908 39.6867C9.31883 38.62 6.78185 37.2337 5.04295 35.721C3.48026 34.3617 2.69153 33.012 2.69153 31.917C2.69153 29.5865 6.11149 26.614 11.8157 24.5937C12.508 24.3487 13.2325 24.1175 13.9843 23.9005C14.7728 26.5055 15.8068 29.2292 17.0548 31.9835C15.7906 34.7785 14.7418 37.5457 13.9456 40.1815C13.4235 40.0295 12.905 39.8645 12.3908 39.6867ZM15.437 18.6217C14.253 12.475 15.0393 7.83821 17.0181 6.67446C19.1257 5.43496 23.7862 7.20221 28.6985 11.6332C29.0188 11.9228 29.3339 12.2183 29.6437 12.5195C27.8133 14.5162 26.0047 16.7895 24.2769 19.2665C21.3139 19.5455 18.4777 19.9935 15.8701 20.5937C15.7094 19.9403 15.565 19.2825 15.437 18.6217ZM42.6124 25.4387C41.9965 24.3579 41.3577 23.2908 40.6965 22.238C42.7066 22.4962 44.6325 22.839 46.4411 23.258C45.8982 25.026 45.2215 26.8742 44.4248 28.7692C43.8426 27.6469 43.2383 26.5365 42.6124 25.4387ZM31.5303 14.4735C32.7716 15.8397 34.0148 17.365 35.2377 19.02C32.757 18.9009 30.2723 18.9004 27.7916 19.0185C29.0157 17.3787 30.2695 15.8555 31.5303 14.4735ZM20.3771 25.4575C19.759 26.5464 19.1659 27.6499 18.5985 28.767C17.815 26.8787 17.1444 25.022 16.5968 23.229C18.3943 22.8205 20.3111 22.4865 22.3084 22.233C21.6399 23.2922 20.9959 24.3675 20.3771 25.4575ZM22.3657 41.7955C20.3022 41.5615 18.3566 41.2447 16.5596 40.8472C17.1158 39.0222 17.8012 37.126 18.6017 35.1972C19.1714 36.3151 19.7669 37.4192 20.3876 38.5087C21.026 39.6287 21.687 40.7257 22.3657 41.7955ZM31.6046 49.553C30.3288 48.155 29.0565 46.6082 27.814 44.9447C29.0204 44.9927 30.2501 45.0172 31.5 45.0172C32.7841 45.0172 34.0535 44.988 35.3029 44.9315C34.0761 46.625 32.8375 48.174 31.6046 49.553ZM44.4502 35.0987C45.2923 37.0487 46.0021 38.935 46.5656 40.7287C44.7391 41.1522 42.7669 41.4932 40.6889 41.7465C41.3548 40.6741 41.9996 39.5884 42.6229 38.49C43.2567 37.3735 43.866 36.2428 44.4502 35.0987ZM40.2917 37.124C39.3374 38.8081 38.3294 40.4602 37.2694 42.0777C35.3493 42.2159 33.4249 42.2845 31.5 42.2835C29.5394 42.2835 27.6324 42.2215 25.796 42.1005C24.7084 40.4867 23.6812 38.8316 22.7167 37.139C21.7567 35.4552 20.8603 33.7351 20.0288 31.9822C20.8582 30.2289 21.7521 28.508 22.7088 26.823L22.7085 26.8232C23.6649 25.1378 24.6839 23.4898 25.7633 21.883C27.6368 21.739 29.5581 21.664 31.4998 21.664C33.4503 21.664 35.3743 21.7397 37.2473 21.8847C38.3158 23.4892 39.3283 25.1314 40.2828 26.8085C41.2427 28.4898 42.1485 30.2023 42.9987 31.9435C42.1572 33.7024 41.2543 35.4303 40.2917 37.124ZM45.8436 6.59296C47.9531 7.82896 48.7736 12.8132 47.4481 19.3495C47.3634 19.7665 47.2685 20.1912 47.1651 20.622C44.5511 20.009 41.7129 19.5532 38.7413 19.27C37.0103 16.7657 35.2165 14.489 33.4158 12.518C33.8878 12.0558 34.3709 11.6057 34.8648 11.168C39.516 7.05621 43.863 5.43271 45.8436 6.59296ZM31.5 26.202C34.6069 26.202 37.1257 28.7607 37.1257 31.917C37.1257 35.0732 34.6069 37.632 31.5 37.632C28.3931 37.632 25.8743 35.0732 25.8743 31.917C25.8743 28.7607 28.3931 26.202 31.5 26.202Z" fill="#00D8FF"/>
</svg>
