<svg width="64" height="64" viewBox="0 0 64 64" fill="none" xmlns="http://www.w3.org/2000/svg">
<path d="M55.0703 35.6285C52.8438 35.64 50.9085 36.1763 49.2882 36.969C48.6935 35.7915 48.099 34.7425 47.9942 33.973C47.8775 33.0755 47.7377 32.5275 47.8775 31.455C48.0175 30.3825 48.647 28.8553 48.6352 28.7388C48.6237 28.6223 48.4952 28.0743 47.213 28.0628C45.9307 28.051 44.8232 28.3075 44.695 28.6455C44.5667 28.9835 44.322 29.753 44.1587 30.5455C43.9372 31.7115 41.5942 35.873 40.2537 38.053C39.8222 37.2023 39.4492 36.456 39.3675 35.8615C39.251 34.964 39.111 34.416 39.251 33.3435C39.391 32.271 40.0205 30.744 40.0087 30.6273C39.997 30.5108 39.8687 29.9628 38.5865 29.9513C37.304 29.9395 36.1965 30.196 36.0685 30.534C35.9402 30.8723 35.8002 31.6648 35.5322 32.4343C35.264 33.2038 32.1515 40.1518 31.3355 41.9468C31.0057 42.6733 30.6598 43.3924 30.298 44.1035C30.298 44.1035 30.2862 44.1385 30.2512 44.1968C30.1376 44.4197 30.0211 44.6412 29.9017 44.8613V44.8727C29.7267 45.1877 29.5402 45.479 29.447 45.479C29.377 45.479 29.2487 44.6397 29.4702 43.4972C29.9365 41.0842 31.044 37.3305 31.0325 37.2023C31.0325 37.1323 31.2422 36.4795 30.3097 36.1413C29.4002 35.8033 29.074 36.3628 28.9922 36.3628C28.9107 36.3628 28.8522 36.561 28.8522 36.561C28.8522 36.561 29.8667 32.341 26.9172 32.341C25.0755 32.341 22.534 34.3578 21.275 36.1763C19.8438 36.9551 18.4138 37.7362 16.985 38.5195C16.2975 38.9043 15.5862 39.289 14.9217 39.6503C14.875 39.6038 14.8285 39.5453 14.7817 39.4988C11.2145 35.6868 4.61649 32.9938 4.89624 27.8763C5.00124 26.011 5.64224 21.1148 17.568 15.1695C27.3835 10.3315 35.1942 11.672 36.5465 14.6448C38.4815 18.8883 32.3615 26.7688 22.2192 27.911C18.349 28.3425 16.3205 26.8503 15.8077 26.2908C15.2715 25.7078 15.1897 25.6728 14.9915 25.7895C14.6652 25.9645 14.875 26.489 14.9915 26.792C15.2947 27.5845 16.542 28.9835 18.652 29.6715C20.5172 30.2775 25.052 30.6158 30.5427 28.494C36.6862 26.1158 41.4892 19.506 40.0787 13.9688C38.668 8.34975 29.342 6.49625 20.5172 9.632C15.2715 11.4975 9.58249 14.435 5.49074 18.2588C0.629492 22.805 -0.140008 26.757 0.174742 28.4125C1.30574 34.2878 9.40774 38.1115 12.6485 40.9442C12.4852 41.0375 12.3335 41.1193 12.2055 41.1893C10.585 41.9935 4.40649 45.2225 2.86774 48.6382C1.11924 52.5085 3.14774 55.2832 4.48824 55.656C8.64999 56.8102 12.9282 54.7353 15.2247 51.3078C17.5212 47.8805 17.2415 43.4272 16.1807 41.3872C16.169 41.364 16.1575 41.3405 16.134 41.3172C16.5537 41.0725 16.985 40.816 17.4047 40.5713C18.1762 40.1152 18.9575 39.6759 19.748 39.2538C19.3515 40.338 19.06 41.632 18.9202 43.4972C18.7452 45.689 19.6427 48.5332 20.8202 49.6522C21.345 50.1422 21.9627 50.1538 22.3592 50.1538C23.7347 50.1538 24.3527 49.0113 25.0405 47.659C25.8797 46.0038 26.6375 44.0802 26.6375 44.0802C26.6375 44.0802 25.6932 49.2795 28.258 49.2795C29.1905 49.2795 30.1347 48.067 30.5545 47.4492V47.4608C30.5545 47.4608 30.5777 47.4257 30.6245 47.3442C30.7177 47.1927 30.776 47.0993 30.776 47.0993V47.0762C31.149 46.4232 31.9885 44.9428 33.2357 42.483C34.8445 39.3123 36.395 35.3488 36.395 35.3488C36.395 35.3488 36.535 36.3163 37.0127 37.925C37.2927 38.8693 37.8752 39.9067 38.3417 40.9092C37.9687 41.434 37.7355 41.7253 37.7355 41.7253L37.7472 41.737C37.444 42.1332 37.1177 42.5645 36.7562 42.9845C35.4855 44.4998 33.9702 46.237 33.7602 46.738C33.5152 47.3325 33.5737 47.764 34.0402 48.1138C34.3782 48.3703 34.9842 48.405 35.6022 48.3703C36.7447 48.2885 37.549 48.0087 37.9452 47.834C38.5632 47.6125 39.286 47.2742 39.962 46.773C41.2095 45.852 41.967 44.5348 41.8972 42.798C41.8622 41.842 41.5475 40.886 41.1627 39.9883C41.2795 39.8253 41.3842 39.662 41.501 39.4988C43.471 36.6193 44.9982 33.46 44.9982 33.46C44.9982 33.46 45.1382 34.4275 45.616 36.0365C45.8492 36.8525 46.3272 37.7385 46.7467 38.601C44.8932 40.105 43.7507 41.8535 43.3427 42.996C42.6085 45.1177 43.1795 46.0735 44.2637 46.295C44.7532 46.4 45.4527 46.1668 45.9657 45.9453C46.6185 45.7355 47.388 45.3742 48.1225 44.8377C49.37 43.917 50.5705 42.6345 50.5005 40.8978C50.4655 40.105 50.2557 39.3238 49.9642 38.566C51.538 37.9135 53.5665 37.552 56.1543 37.855C61.7035 38.5078 62.7992 41.97 62.5892 43.4275C62.3795 44.8845 61.2137 45.6773 60.8292 45.922C60.4442 46.167 60.3162 46.2485 60.3512 46.4232C60.3977 46.6797 60.5843 46.6682 60.9108 46.6215C61.3655 46.54 63.8253 45.444 63.93 42.7627C64.105 39.3355 60.8408 35.5935 55.0703 35.6285ZM12.2637 50.0605C10.4217 52.0655 7.85724 52.8233 6.74974 52.1823C5.56074 51.4943 6.02699 48.5333 8.28849 46.4118C9.66399 45.1178 11.436 43.9167 12.6135 43.1825C12.8815 43.0192 13.278 42.7863 13.756 42.4948C13.8375 42.448 13.8842 42.4248 13.8842 42.4248L14.164 42.2497C14.9915 45.2807 14.199 47.9505 12.2637 50.0605ZM25.67 40.9442C25.0287 42.5065 23.6882 46.505 22.8722 46.2835C22.1727 46.097 21.7412 43.066 22.7322 40.07C23.2335 38.566 24.2942 36.7708 24.9122 36.0715C25.9147 34.9523 27.0222 34.579 27.2902 35.034C27.6285 35.6285 26.0662 39.965 25.67 40.9442ZM36.733 46.2368C36.4647 46.3768 36.2085 46.47 36.0917 46.4C36.0102 46.3533 36.2085 46.1668 36.2085 46.1668C36.2085 46.1668 37.5957 44.6748 38.1435 43.9985C38.4585 43.6023 38.8312 43.136 39.2277 42.6113V42.7627C39.2277 44.5465 37.5022 45.7473 36.7327 46.2368H36.733ZM45.2662 44.29C45.068 44.15 45.103 43.6838 45.7675 42.2265C46.024 41.6553 46.63 40.6995 47.6677 39.7785C47.7842 40.1515 47.866 40.513 47.8542 40.851C47.8425 43.101 46.234 43.9403 45.2662 44.29Z" fill="#CD6799"/>
</svg>
