<svg width="64" height="64" viewBox="0 0 64 64" fill="none" xmlns="http://www.w3.org/2000/svg">
<g clip-path="url(#clip0_133_384)">
<path d="M31.9755 0.000488281C14.348 0.000488281 0.000488281 14.348 0.000488281 31.9755C0.000488281 49.603 14.348 63.9505 31.9755 63.9505C49.603 63.9505 63.9505 49.603 63.9505 31.9755C63.9505 14.348 49.6035 0.000488281 31.9755 0.000488281ZM31.9755 5.33999C46.7175 5.33999 58.6115 17.2335 58.6115 31.9755C58.6115 46.718 46.7175 58.6115 31.9755 58.6115C17.2335 58.6115 5.33949 46.718 5.33949 31.9755C5.33949 17.2335 17.2335 5.33999 31.9755 5.33999Z" fill="#010101"/>
<path fill-rule="evenodd" clip-rule="evenodd" d="M24.195 30.358C31.197 24.638 38.046 18.719 45.2005 13.166C41.448 18.9325 37.5885 24.6225 33.836 30.3885C30.6175 30.4035 27.3985 30.4035 24.195 30.358ZM30.114 33.546C33.348 33.546 36.5665 33.546 39.785 33.592C32.7375 39.282 25.919 45.2465 18.7495 50.784C22.502 45.0175 26.3615 39.3125 30.114 33.546Z" fill="#010101"/>
</g>
<defs>
<clipPath id="clip0_133_384">
<rect width="64" height="64" fill="white"/>
</clipPath>
</defs>
</svg>
