<svg width="64" height="64" viewBox="0 0 64 64" fill="none" xmlns="http://www.w3.org/2000/svg">
<path d="M62.3829 9.76L33.6619 61.119C33.0684 62.1795 31.5449 62.1855 30.9434 61.131L1.65245 9.766C0.995946 8.615 1.97845 7.2225 3.28295 7.455L32.0349 12.5935C32.2184 12.627 32.4065 12.627 32.5899 12.5935L60.7399 7.463C62.0389 7.2265 63.0274 8.6075 62.3829 9.76Z" fill="url(#paint0_linear_133_377)"/>
<path d="M45.73 0.714995L24.477 4.87899C24.3074 4.91214 24.1536 5.00069 24.0397 5.13074C23.9259 5.26079 23.8584 5.42497 23.848 5.59749L22.5395 27.6815C22.5325 27.8026 22.5537 27.9237 22.6016 28.0352C22.6495 28.1466 22.7226 28.2454 22.8153 28.3237C22.908 28.402 23.0176 28.4577 23.1355 28.4863C23.2534 28.5149 23.3763 28.5156 23.4945 28.4885L29.4125 27.121C29.54 27.0917 29.6727 27.0949 29.7986 27.1303C29.9245 27.1656 30.0395 27.232 30.1331 27.3234C30.2267 27.4148 30.2958 27.5282 30.3341 27.6532C30.3725 27.7782 30.3788 27.9109 30.3525 28.039L28.594 36.6485C28.5671 36.781 28.5751 36.9182 28.6172 37.0467C28.6593 37.1752 28.734 37.2906 28.834 37.3816C28.934 37.4725 29.056 37.536 29.1879 37.5657C29.3198 37.5954 29.4572 37.5903 29.5865 37.551L33.2405 36.4395C33.807 36.2675 34.352 36.7655 34.233 37.3455L31.438 50.869C31.264 51.715 32.389 52.176 32.858 51.451L33.1705 50.967L50.4905 16.402C50.7815 15.822 50.28 15.162 49.6455 15.285L43.553 16.461C43.4219 16.4865 43.2865 16.4778 43.1597 16.4358C43.0329 16.3939 42.919 16.32 42.829 16.2214C42.739 16.1227 42.6758 16.0026 42.6456 15.8725C42.6154 15.7424 42.6192 15.6067 42.6565 15.4785L46.6315 1.69749C46.6689 1.56882 46.6725 1.43268 46.642 1.30221C46.6114 1.17174 46.5478 1.05134 46.4572 0.952608C46.3666 0.853877 46.2521 0.780148 46.1247 0.73853C45.9974 0.696911 45.8614 0.688805 45.73 0.714995Z" fill="url(#paint1_linear_133_377)"/>
<defs>
<linearGradient id="paint0_linear_133_377" x1="0.936546" y1="5.6198" x2="36.6834" y2="54.1669" gradientUnits="userSpaceOnUse">
<stop stop-color="#41D1FF"/>
<stop offset="1" stop-color="#BD34FE"/>
</linearGradient>
<linearGradient id="paint1_linear_133_377" x1="30.385" y1="1.84498" x2="36.8515" y2="46.2041" gradientUnits="userSpaceOnUse">
<stop stop-color="#FFEA83"/>
<stop offset="0.083" stop-color="#FFDD35"/>
<stop offset="1" stop-color="#FFA800"/>
</linearGradient>
</defs>
</svg>
