<svg width="512" height="512" viewBox="0 0 512 512" fill="none" xmlns="http://www.w3.org/2000/svg">
<g clip-path="url(#clip0_86_148)">
<circle cx="256" cy="256" r="256" fill="#1D1D1B"/>
<g clip-path="url(#clip1_86_148)">
<path d="M151.888 180.599C164.221 180.599 174.252 190.648 174.252 203.001C174.252 215.355 164.221 225.404 151.888 225.404C139.556 225.404 129.525 215.355 129.525 203.001C129.525 190.648 139.556 180.599 151.888 180.599ZM151.888 138C116.067 138 87 167.118 87 203.001C87 238.885 116.067 268.003 151.888 268.003C187.71 268.003 216.777 238.885 216.777 203.001C216.777 167.118 187.735 138 151.888 138Z" fill="white"/>
<path d="M216.477 374H173.951V332.228H87V289.628H216.477V374Z" fill="white"/>
<path d="M425 374L370.368 272.263C370.943 271.386 371.518 270.534 372.094 269.657C426.426 184.684 424.525 138 424.525 138H245.844V374C245.844 374 292.622 361.396 339.224 311.955L372.544 374H425ZM288.369 301.556V180.599H370.843C364.139 197.739 353.433 219.891 336.298 246.703C320.838 270.885 303.928 288.676 288.394 301.556H288.369Z" fill="white"/>
</g>
</g>
<defs>
<clipPath id="clip0_86_148">
<rect width="512" height="512" fill="white"/>
</clipPath>
<clipPath id="clip1_86_148">
<rect width="338" height="236" fill="white" transform="translate(87 138)"/>
</clipPath>
</defs>
</svg>
