<svg width="47" height="32" viewBox="0 0 47 32" fill="none" xmlns="http://www.w3.org/2000/svg">
<g>
<path d="M9.02294 5.77617C10.7378 5.77617 12.1326 7.13867 12.1326 8.81376C12.1326 10.4889 10.7378 11.8513 9.02294 11.8513C7.3081 11.8513 5.91326 10.4889 5.91326 8.81376C5.91326 7.13867 7.3081 5.77617 9.02294 5.77617ZM9.02294 0C4.04189 0 0 3.94818 0 8.81376C0 13.6793 4.04189 17.6275 9.02294 17.6275C14.004 17.6275 18.0459 13.6793 18.0459 8.81376C18.0459 3.94818 14.0075 0 9.02294 0Z" fill="currentColor"/>
<path d="M18.0041 32H12.0909V26.3359H0V20.5598H18.0041V32Z" fill="currentColor"/>
<path d="M47.0001 32L39.4033 18.2051C39.4833 18.0862 39.5633 17.9707 39.6433 17.8518C47.1984 6.33001 46.934 0 46.934 0H22.0879V32C22.0879 32 28.5925 30.2909 35.0727 23.5872L39.7059 32H47.0001ZM28.0012 22.1771V5.77617H39.4694C38.5372 8.10023 37.0484 11.1038 34.6657 14.7394C32.5161 18.0183 30.1647 20.4307 28.0046 22.1771H28.0012Z" fill="currentColor"/>
</g>
</svg>
